# xmcd
#
# Track frame offsets: 
#        150
#        19612
#        40247
#        59484
#        84389
#        100784
#        120502
#        135462
#        148062
#        156521
#        178298
#        199289
#        219418
#        240480
#
# Disc length: 3403 seconds
#
# Revision: 1
# Processed by: cddbd v1.4PL0 Copyright (c) Steve Scherf et al.
# Submitted via: ExactAudioCopy v0.90b4
#
DISCID=c50d490e
DTITLE=Anthony Copping - Siva Pacifica
DYEAR=1997
DGENRE=Pop
TTITLE0=Mana (Part I)
TTITLE1=Hote
TTITLE2=Manu
TTITLE3=Sole
TTITLE4=Mana (Part II)
TTITLE5=Miri Iti
TTITLE6=Aloha
TTITLE7=Jungle
TTITLE8=Faikava
TTITLE9=Amataga
TTITLE10=Are Are
TTITLE11=Eh Hanua
TTITLE12=Anaho
TTITLE13=Aleki
EXTD=
EXTT0=
EXTT1=
EXTT2=
EXTT3=
EXTT4=
EXTT5=
EXTT6=
EXTT7=
EXTT8=
EXTT9=
EXTT10=
EXTT11=
EXTT12=
EXTT13=
PLAYORDER=
